<svg width="640" height="148" viewBox="0 0 640 148" fill="none" xmlns="http://www.w3.org/2000/svg">
<g clip-path="url(#clip0_207_4830)">
<path d="M543.513 28.2359C518.251 28.2359 497.801 48.7121 497.801 73.9477C497.801 99.1834 518.277 119.66 543.513 119.66C568.748 119.66 589.224 99.1834 589.224 73.9477C589.224 48.7121 568.748 28.2359 543.513 28.2359ZM543.513 102.06C527.979 102.06 515.4 89.4814 515.4 73.9477C515.4 58.4141 527.979 45.8355 543.513 45.8355C559.046 45.8355 571.625 58.4141 571.625 73.9477C571.625 89.4814 559.046 102.06 543.513 102.06Z" fill="#141414"/>
<path d="M638.31 30.9556H622.305C609.753 30.9556 599.58 41.1283 599.58 53.6807V115.894C599.58 116.6 600.129 117.149 600.835 117.149H616.003C616.709 117.149 617.258 116.6 617.258 115.894V55.1713C617.258 51.5625 620.187 48.6336 623.796 48.6336H638.283C638.99 48.6336 639.539 48.0844 639.539 47.3784V32.2108C639.539 31.5309 638.99 30.9556 638.283 30.9556H638.31Z" fill="#141414"/>
<path d="M318.301 30.9556H336.476C337.13 30.9556 337.732 31.3478 337.993 31.9493L372.957 108.964H352.402L317.517 32.1585C317.255 31.6093 317.674 30.9817 318.275 30.9817L318.301 30.9556Z" fill="#141414"/>
<path d="M380.881 32.0539L349.866 115.868C347.172 123.164 340.216 128.002 332.423 128.002H322.747C322.068 128.002 321.492 128.551 321.492 129.257V146.02C321.492 146.7 322.041 147.275 322.747 147.275H333.286C348.611 147.275 362.314 137.73 367.649 123.347L401.436 32.0539C401.645 31.5047 401.226 30.9294 400.651 30.9294H382.45C381.744 30.9294 381.116 31.374 380.881 32.0278V32.0539Z" fill="#141414"/>
<path d="M313.123 99.5234H271.02C256.454 99.5234 244.058 88.2 243.561 73.6601C243.012 58.3879 255.225 45.8355 270.392 45.8355C282.657 45.8355 293.013 54.073 296.203 65.3179C296.36 65.8671 296.831 66.2332 297.406 66.2332H313.384C313.907 66.2332 314.299 65.7625 314.221 65.2395C310.534 43.3773 290.921 26.9283 267.725 28.2882C245.601 29.5696 227.583 47.4045 226.04 69.5021C224.236 95.4961 244.79 117.123 270.392 117.123H313.149C313.829 117.123 314.404 116.574 314.404 115.868V100.752C314.404 100.073 313.855 99.4972 313.149 99.4972L313.123 99.5234Z" fill="#141414"/>
<path d="M489.955 99.5234H447.852C433.286 99.5234 420.89 88.2 420.393 73.6601C419.844 58.3879 432.057 45.8355 447.224 45.8355C459.489 45.8355 469.845 54.073 473.035 65.3179C473.192 65.8671 473.663 66.2332 474.238 66.2332H490.216C490.739 66.2332 491.132 65.7625 491.053 65.2395C487.366 43.3773 467.753 26.9283 444.557 28.2882C422.433 29.5696 404.415 47.4045 402.872 69.5021C401.068 95.4961 421.622 117.123 447.224 117.123H489.981C490.661 117.123 491.236 116.574 491.236 115.868V100.752C491.236 100.073 490.687 99.4972 489.981 99.4972L489.955 99.5234Z" fill="#141414"/>
<path d="M168.352 105.329C168.352 105.643 168.352 105.956 168.352 106.27C167.855 120.078 156.087 130.826 142.28 130.826H84.6953L92.1745 147.563H142.881C166.182 147.563 185.089 128.655 185.089 105.355H168.352V105.329Z" fill="#00C3D4"/>
<path d="M63.6165 55.3282C68.219 33.0476 87.9892 16.2587 111.63 16.2587C135.27 16.2587 155.014 33.0476 159.643 55.3282H175.699C170.861 24.2871 143.978 0.463562 111.63 0.463562C79.2809 0.463562 52.3716 24.2871 47.5859 55.3282H63.6426H63.6165Z" fill="#0251FF"/>
<path d="M77.1369 114.037H43.2453C29.4376 114.037 17.6696 103.289 17.1728 89.4814C16.6497 74.9938 28.2608 63.0689 42.6438 63.0689C54.3071 63.0689 64.1137 70.8881 67.1472 81.5576C67.3041 82.0807 67.7487 82.4206 68.2717 82.4206H83.4654C83.9623 82.4206 84.3545 81.9761 84.2499 81.4792C80.7719 60.7153 62.1262 45.1032 40.1071 46.3846C19.1079 47.6399 1.97906 64.5595 0.54076 85.5587C-1.15905 110.219 18.3496 130.774 42.6438 130.774H84.7206L77.163 114.037H77.1369Z" fill="#0251FF"/>
<path d="M96.7243 94.2147H113.461V65.8148H96.7243V94.2147Z" fill="#00C3D4"/>
<path d="M128.002 94.2147H144.738V65.8147H128.002V94.2147Z" fill="#00C3D4"/>
<path d="M142.854 146.961V131.192C157.132 131.192 168.769 119.581 168.769 105.277H184.538C184.538 128.263 165.84 146.961 142.854 146.961Z" fill="#00C3D4"/>
</g>
<defs>
<clipPath id="clip0_207_4830">
<rect width="639.129" height="147.073" fill="white" transform="translate(0.435547 0.463562)"/>
</clipPath>
</defs>
</svg>
